<?xml version="1.0" encoding="utf-8"?>
<!-- Generator: Adobe Illustrator 16.0.0, SVG Export Plug-In . SVG Version: 6.00 Build 0)  -->
<!DOCTYPE svg PUBLIC "-//W3C//DTD SVG 1.1//EN" "http://www.w3.org/Graphics/SVG/1.1/DTD/svg11.dtd">
<svg version="1.1" id="Layer_1" xmlns="http://www.w3.org/2000/svg" xmlns:xlink="http://www.w3.org/1999/xlink" x="0px" y="0px"
	 width="137px" height="50px" viewBox="0 0 137 50" enable-background="new 0 0 137 50" xml:space="preserve">
<g>
	<g>
		<g>
			<path fill="#FFFFFF" d="M89.238,5.809l4.471,13.229l4.485-13.322c0.233-0.701,0.409-1.187,0.525-1.461
				c0.115-0.272,0.309-0.521,0.579-0.74c0.27-0.219,0.637-0.33,1.104-0.33c0.342,0,0.657,0.085,0.948,0.256
				c0.293,0.171,0.522,0.397,0.689,0.68c0.165,0.283,0.247,0.567,0.247,0.854c0,0.197-0.027,0.411-0.081,0.64
				c-0.055,0.228-0.12,0.453-0.2,0.672c-0.082,0.22-0.161,0.447-0.242,0.68l-4.783,12.893c-0.17,0.494-0.341,0.962-0.511,1.407
				c-0.171,0.444-0.368,0.834-0.594,1.17c-0.225,0.337-0.522,0.613-0.895,0.828c-0.374,0.215-0.828,0.323-1.366,0.323
				c-0.54,0-0.996-0.106-1.367-0.316c-0.374-0.211-0.676-0.489-0.904-0.834c-0.228-0.345-0.428-0.738-0.6-1.178
				c-0.17-0.439-0.34-0.906-0.511-1.399l-4.7-12.785c-0.082-0.233-0.165-0.462-0.251-0.686c-0.083-0.225-0.156-0.467-0.214-0.727
				c-0.059-0.261-0.088-0.48-0.088-0.661c0-0.457,0.184-0.874,0.553-1.25c0.368-0.378,0.83-0.566,1.386-0.566
				c0.685,0,1.166,0.209,1.448,0.626C88.652,4.229,88.941,4.894,89.238,5.809z"/>
			<path fill="#FFFFFF" d="M106.533,6.937c-0.513,0-0.951-0.156-1.315-0.47s-0.546-0.757-0.546-1.331
				c0-0.519,0.187-0.947,0.56-1.283s0.807-0.504,1.302-0.504c0.477,0,0.898,0.152,1.269,0.457c0.368,0.305,0.552,0.749,0.552,1.331
				c0,0.564-0.18,1.006-0.539,1.324C107.455,6.777,107.028,6.937,106.533,6.937z M108.354,10.735v10.619
				c0,0.735-0.175,1.292-0.525,1.669c-0.352,0.375-0.795,0.564-1.335,0.564s-0.979-0.192-1.316-0.578
				c-0.336-0.386-0.505-0.938-0.505-1.656V10.842c0-0.726,0.169-1.273,0.505-1.641c0.338-0.369,0.776-0.552,1.316-0.552
				s0.983,0.183,1.335,0.552C108.179,9.569,108.354,10.08,108.354,10.735z"/>
			<path fill="#FFFFFF" d="M122.409,17.021h-7.191c0.01,0.834,0.178,1.569,0.506,2.205c0.327,0.637,0.763,1.116,1.305,1.439
				c0.543,0.322,1.142,0.484,1.799,0.484c0.439,0,0.843-0.051,1.205-0.155c0.363-0.103,0.716-0.264,1.057-0.483
				c0.343-0.22,0.656-0.455,0.943-0.707c0.286-0.25,0.66-0.592,1.118-1.022c0.188-0.161,0.457-0.242,0.809-0.242
				c0.375,0,0.682,0.104,0.914,0.31c0.234,0.207,0.35,0.498,0.35,0.874c0,0.332-0.129,0.721-0.389,1.165
				c-0.262,0.444-0.654,0.871-1.179,1.279c-0.525,0.408-1.186,0.747-1.98,1.016c-0.794,0.269-1.707,0.404-2.74,0.404
				c-2.36,0-4.195-0.672-5.505-2.018c-1.309-1.346-1.963-3.17-1.963-5.476c0-1.085,0.16-2.092,0.483-3.021
				c0.322-0.929,0.794-1.724,1.412-2.389c0.618-0.663,1.38-1.172,2.287-1.526c0.905-0.354,1.912-0.532,3.016-0.532
				c1.438,0,2.669,0.303,3.697,0.908c1.028,0.605,1.798,1.388,2.309,2.349c0.512,0.959,0.769,1.937,0.769,2.932
				c0,0.925-0.266,1.523-0.795,1.796C124.116,16.885,123.37,17.021,122.409,17.021z M115.218,14.934h6.666
				c-0.09-1.255-0.429-2.194-1.017-2.817s-1.362-0.935-2.323-0.935c-0.915,0-1.668,0.316-2.255,0.948
				C115.701,12.762,115.344,13.697,115.218,14.934z"/>
			<path fill="#FFFFFF" d="M128.74,8.977h0.404v-2.21c0-0.593,0.017-1.057,0.048-1.394c0.03-0.338,0.117-0.627,0.261-0.87
				c0.144-0.252,0.348-0.456,0.617-0.613c0.268-0.158,0.567-0.237,0.897-0.237c0.464,0,0.885,0.176,1.259,0.526
				c0.25,0.234,0.409,0.519,0.477,0.855c0.066,0.338,0.101,0.816,0.101,1.436v2.506h1.347c0.521,0,0.917,0.124,1.191,0.371
				c0.273,0.247,0.41,0.563,0.41,0.948c0,0.494-0.194,0.839-0.585,1.036c-0.391,0.198-0.949,0.295-1.677,0.295h-0.687v6.754
				c0,0.574,0.02,1.016,0.061,1.325c0.039,0.31,0.147,0.562,0.322,0.753c0.176,0.193,0.461,0.29,0.856,0.29
				c0.215,0,0.507-0.038,0.875-0.114c0.367-0.076,0.655-0.115,0.861-0.115c0.297,0,0.563,0.119,0.801,0.356
				c0.239,0.238,0.359,0.531,0.359,0.881c0,0.592-0.324,1.045-0.97,1.358c-0.647,0.313-1.577,0.47-2.789,0.47
				c-1.145,0-2.011-0.192-2.602-0.578c-0.59-0.386-0.976-0.919-1.16-1.602c-0.183-0.681-0.274-1.592-0.274-2.731v-7.05h-0.483
				c-0.531,0-0.936-0.125-1.213-0.376c-0.278-0.251-0.417-0.569-0.417-0.955c0-0.385,0.146-0.701,0.437-0.948
				C127.761,9.101,128.184,8.977,128.74,8.977z"/>
		</g>
		<g>
			<path fill="#FFFFFF" d="M54.992,18.042c0,0.536,0.018,0.927,0.055,1.172c0.034,0.246,0.127,0.449,0.274,0.61
				c0.147,0.161,0.377,0.273,0.69,0.334v3.432h-6.781v-3.432c0.304-0.062,0.534-0.176,0.69-0.341
				c0.156-0.165,0.254-0.369,0.295-0.609c0.04-0.241,0.06-0.63,0.06-1.166V8.606c0-0.732-0.059-1.244-0.174-1.534
				c-0.115-0.29-0.407-0.485-0.871-0.583V3.193h6.781V6.49c-0.313,0.063-0.541,0.176-0.684,0.341s-0.235,0.374-0.275,0.624
				c-0.039,0.25-0.06,0.634-0.06,1.152v2.721h4.342V8.606c0-0.759-0.056-1.277-0.168-1.555c-0.112-0.277-0.396-0.464-0.851-0.562
				V3.193h6.781V6.49c-0.303,0.063-0.533,0.179-0.689,0.349c-0.156,0.169-0.254,0.377-0.295,0.623
				c-0.04,0.245-0.061,0.627-0.061,1.145v9.435c0,0.536,0.021,0.925,0.061,1.166c0.041,0.241,0.139,0.444,0.295,0.609
				s0.387,0.279,0.689,0.341v3.432h-6.781v-3.432c0.455-0.098,0.739-0.285,0.851-0.562c0.112-0.277,0.168-0.795,0.168-1.554v-3.257
				h-4.342V18.042z"/>
			<path fill="#FFFFFF" d="M74.626,23.589h-6.782v-3.432c0.303-0.062,0.534-0.176,0.689-0.341c0.157-0.165,0.256-0.369,0.296-0.609
				c0.041-0.241,0.059-0.63,0.059-1.166V8.606c0-0.732-0.058-1.244-0.173-1.534c-0.116-0.29-0.407-0.485-0.871-0.583V3.193h6.782
				c2.009,0,3.578,0.228,4.704,0.684c1.125,0.455,1.936,1.231,2.432,2.325c0.495,1.095,0.744,2.656,0.744,4.684v4.878
				c0,1.617-0.126,2.922-0.376,3.913c-0.249,0.991-0.671,1.771-1.26,2.338c-0.589,0.568-1.38,0.972-2.371,1.213
				C77.507,23.469,76.215,23.589,74.626,23.589z M73.606,19.501h1.381c0.571,0,1.044-0.042,1.42-0.127
				c0.375-0.084,0.661-0.236,0.857-0.455c0.198-0.219,0.333-0.503,0.41-0.851c0.075-0.349,0.113-0.821,0.113-1.421v-6.151
				c0-0.822-0.061-1.467-0.182-1.936c-0.119-0.47-0.36-0.813-0.723-1.033C76.522,7.309,75.97,7.2,75.228,7.2h-0.267l-1.354,0.026
				V19.501z"/>
		</g>
		<g>
			<path fill="#FFFFFF" d="M59.396,33.2h-6.701v4.296h5.603c0.519,0,0.906,0.116,1.162,0.349c0.256,0.234,0.384,0.546,0.384,0.935
				s-0.131,0.698-0.39,0.929c-0.26,0.229-0.646,0.343-1.156,0.343h-5.603v5.533c0,0.704-0.159,1.225-0.476,1.564
				c-0.317,0.34-0.724,0.51-1.221,0.51c-0.503,0-0.915-0.172-1.231-0.516c-0.317-0.343-0.476-0.862-0.476-1.559V32.661
				c0-0.488,0.073-0.888,0.218-1.197c0.146-0.31,0.372-0.533,0.682-0.676c0.309-0.141,0.704-0.212,1.186-0.212h8.019
				c0.542,0,0.946,0.121,1.209,0.361c0.264,0.24,0.396,0.555,0.396,0.945c0,0.396-0.132,0.715-0.396,0.956
				C60.342,33.079,59.938,33.2,59.396,33.2z"/>
			<path fill="#FFFFFF" d="M74.13,41.3c0,0.931-0.146,1.791-0.436,2.578c-0.29,0.786-0.711,1.462-1.26,2.027
				c-0.551,0.565-1.208,0.998-1.97,1.3c-0.765,0.302-1.625,0.453-2.579,0.453c-0.948,0-1.799-0.153-2.555-0.459
				c-0.756-0.305-1.411-0.742-1.965-1.312c-0.555-0.568-0.974-1.241-1.261-2.016c-0.286-0.775-0.429-1.633-0.429-2.572
				c0-0.947,0.146-1.814,0.436-2.602c0.29-0.784,0.706-1.459,1.248-2.016c0.543-0.559,1.2-0.985,1.971-1.289
				c0.771-0.301,1.622-0.452,2.555-0.452c0.947,0,1.805,0.152,2.579,0.458c0.771,0.305,1.432,0.741,1.98,1.306
				c0.551,0.565,0.968,1.238,1.256,2.017C73.986,39.501,74.13,40.36,74.13,41.3z M70.991,41.3c0-1.275-0.282-2.269-0.842-2.979
				c-0.562-0.71-1.316-1.065-2.263-1.065c-0.611,0-1.15,0.158-1.616,0.476s-0.824,0.785-1.077,1.403
				c-0.252,0.619-0.379,1.342-0.379,2.166c0,0.817,0.125,1.532,0.373,2.142c0.248,0.612,0.603,1.079,1.066,1.404
				c0.462,0.324,1.004,0.485,1.632,0.485c0.947,0,1.702-0.355,2.263-1.07C70.709,43.548,70.991,42.561,70.991,41.3z"/>
			<path fill="#FFFFFF" d="M88.302,41.3c0,0.931-0.146,1.791-0.436,2.578c-0.29,0.786-0.71,1.462-1.261,2.027
				c-0.549,0.565-1.206,0.998-1.97,1.3c-0.765,0.302-1.623,0.453-2.578,0.453c-0.947,0-1.798-0.153-2.555-0.459
				c-0.757-0.305-1.411-0.742-1.964-1.312c-0.555-0.568-0.975-1.241-1.26-2.016c-0.288-0.775-0.432-1.633-0.432-2.572
				c0-0.947,0.146-1.814,0.437-2.602c0.29-0.784,0.705-1.459,1.249-2.016c0.541-0.559,1.197-0.985,1.97-1.289
				c0.771-0.301,1.623-0.452,2.555-0.452c0.947,0,1.806,0.152,2.578,0.458c0.771,0.305,1.433,0.741,1.982,1.306
				c0.55,0.565,0.969,1.238,1.253,2.017C88.159,39.501,88.302,40.36,88.302,41.3z M85.162,41.3c0-1.275-0.279-2.269-0.841-2.979
				c-0.562-0.71-1.316-1.065-2.264-1.065c-0.611,0-1.149,0.158-1.615,0.476s-0.825,0.785-1.077,1.403
				c-0.252,0.619-0.378,1.342-0.378,2.166c0,0.817,0.124,1.532,0.372,2.142c0.248,0.612,0.604,1.079,1.066,1.404
				c0.462,0.324,1.006,0.485,1.632,0.485c0.947,0,1.702-0.355,2.264-1.07C84.883,43.548,85.162,42.561,85.162,41.3z"/>
			<path fill="#FFFFFF" d="M90.936,35.216h0.345v-1.878c0-0.505,0.013-0.9,0.04-1.186c0.026-0.287,0.102-0.534,0.223-0.739
				c0.123-0.214,0.298-0.387,0.528-0.521c0.229-0.135,0.485-0.202,0.767-0.202c0.398,0,0.756,0.15,1.078,0.448
				c0.213,0.2,0.349,0.44,0.406,0.728s0.086,0.693,0.086,1.22v2.131h1.145c0.443,0,0.782,0.104,1.015,0.316
				c0.233,0.209,0.35,0.479,0.35,0.807c0,0.42-0.167,0.714-0.498,0.882c-0.332,0.168-0.808,0.253-1.426,0.253h-0.585v5.751
				c0,0.488,0.017,0.865,0.051,1.128c0.036,0.264,0.126,0.478,0.275,0.642c0.148,0.165,0.393,0.247,0.728,0.247
				c0.185,0,0.432-0.033,0.744-0.098c0.313-0.065,0.558-0.098,0.733-0.098c0.253,0,0.479,0.102,0.682,0.304s0.304,0.453,0.304,0.751
				c0,0.504-0.274,0.889-0.824,1.156c-0.55,0.269-1.34,0.401-2.372,0.401c-0.978,0-1.719-0.165-2.224-0.492
				c-0.503-0.329-0.833-0.783-0.99-1.363c-0.156-0.581-0.234-1.356-0.234-2.326v-6.003h-0.412c-0.451,0-0.794-0.107-1.031-0.32
				c-0.237-0.216-0.356-0.485-0.356-0.814c0-0.328,0.125-0.598,0.374-0.807C90.103,35.32,90.464,35.216,90.936,35.216z"/>
			<path fill="#FFFFFF" d="M101.958,32.077v4.778c0.587-0.612,1.188-1.08,1.8-1.404c0.609-0.324,1.365-0.487,2.268-0.487
				c1.038,0,1.949,0.247,2.732,0.739c0.782,0.493,1.39,1.207,1.82,2.142c0.433,0.937,0.648,2.046,0.648,3.329
				c0,0.947-0.121,1.815-0.36,2.605c-0.241,0.791-0.591,1.477-1.05,2.057c-0.458,0.581-1.013,1.03-1.666,1.346
				c-0.652,0.317-1.373,0.477-2.16,0.477c-0.481,0-0.933-0.058-1.357-0.172s-0.784-0.265-1.083-0.453
				c-0.298-0.188-0.55-0.38-0.763-0.578c-0.209-0.198-0.486-0.495-0.829-0.894v0.309c0,0.589-0.143,1.033-0.424,1.335
				c-0.283,0.302-0.643,0.453-1.077,0.453c-0.444,0-0.797-0.151-1.06-0.453s-0.396-0.746-0.396-1.335V32.216
				c0-0.635,0.129-1.113,0.384-1.438c0.256-0.325,0.613-0.487,1.071-0.487c0.481,0,0.852,0.154,1.111,0.464
				C101.827,31.063,101.958,31.505,101.958,32.077z M102.106,41.368c0,1.246,0.285,2.202,0.854,2.87
				c0.568,0.669,1.315,1.003,2.239,1.003c0.786,0,1.464-0.343,2.033-1.026c0.568-0.683,0.854-1.661,0.854-2.938
				c0-0.825-0.118-1.534-0.355-2.131c-0.236-0.595-0.572-1.056-1.008-1.38c-0.436-0.325-0.943-0.487-1.523-0.487
				c-0.597,0-1.128,0.162-1.593,0.487c-0.466,0.324-0.832,0.794-1.1,1.408C102.239,39.79,102.106,40.521,102.106,41.368z"/>
			<path fill="#FFFFFF" d="M121.64,45.894c-0.756,0.589-1.487,1.028-2.193,1.324c-0.707,0.293-1.499,0.44-2.376,0.44
				c-0.804,0-1.507-0.159-2.115-0.477c-0.606-0.315-1.075-0.745-1.403-1.288s-0.492-1.131-0.492-1.764
				c0-0.855,0.271-1.585,0.813-2.188s1.287-1.009,2.235-1.215c0.197-0.045,0.69-0.148,1.477-0.309
				c0.787-0.161,1.461-0.308,2.022-0.441c0.563-0.133,1.17-0.296,1.827-0.488c-0.038-0.823-0.204-1.429-0.497-1.814
				c-0.295-0.385-0.904-0.578-1.829-0.578c-0.795,0-1.392,0.11-1.792,0.332c-0.401,0.222-0.745,0.553-1.031,0.996
				s-0.489,0.734-0.607,0.876s-0.372,0.213-0.762,0.213c-0.352,0-0.655-0.113-0.912-0.339c-0.255-0.225-0.383-0.513-0.383-0.864
				c0-0.549,0.194-1.085,0.585-1.604c0.389-0.519,0.997-0.947,1.822-1.283c0.824-0.335,1.852-0.504,3.08-0.504
				c1.375,0,2.456,0.163,3.243,0.486c0.785,0.326,1.342,0.839,1.666,1.541c0.325,0.704,0.488,1.637,0.488,2.797
				c0,0.733-0.003,1.354-0.007,1.867c-0.003,0.512-0.01,1.08-0.018,1.707c0,0.588,0.098,1.2,0.294,1.839
				c0.194,0.639,0.292,1.048,0.292,1.23c0,0.32-0.15,0.613-0.452,0.877c-0.303,0.264-0.645,0.396-1.026,0.396
				c-0.32,0-0.639-0.151-0.951-0.453C122.323,46.903,121.991,46.467,121.64,45.894z M121.434,41.368
				c-0.458,0.168-1.124,0.347-1.999,0.532c-0.875,0.188-1.48,0.325-1.815,0.413c-0.336,0.089-0.657,0.261-0.963,0.516
				c-0.306,0.256-0.459,0.612-0.459,1.071c0,0.474,0.181,0.876,0.541,1.209c0.358,0.332,0.827,0.498,1.406,0.498
				c0.62,0,1.191-0.136,1.714-0.407c0.523-0.271,0.907-0.62,1.152-1.049c0.282-0.472,0.423-1.252,0.423-2.336V41.368z"/>
			<path fill="#FFFFFF" d="M127.678,45.757V32.192c0-0.627,0.14-1.1,0.418-1.422c0.278-0.32,0.656-0.48,1.128-0.48
				c0.474,0,0.856,0.158,1.146,0.477c0.29,0.316,0.435,0.792,0.435,1.426v13.564c0,0.633-0.147,1.109-0.439,1.425
				c-0.294,0.317-0.676,0.477-1.142,0.477c-0.457,0-0.829-0.165-1.117-0.492C127.821,46.837,127.678,46.367,127.678,45.757z"/>
			<path fill="#FFFFFF" d="M134.035,45.757V32.192c0-0.627,0.14-1.1,0.419-1.422c0.279-0.32,0.655-0.48,1.129-0.48
				c0.473,0,0.854,0.158,1.145,0.477c0.29,0.316,0.437,0.792,0.437,1.426v13.564c0,0.633-0.148,1.109-0.441,1.425
				c-0.294,0.317-0.674,0.477-1.14,0.477c-0.46,0-0.831-0.165-1.118-0.492C134.18,46.837,134.035,46.367,134.035,45.757z"/>
		</g>
	</g>
	<g>
		<path display="none" fill="#FFFFFF" d="M45.35,25.172c-0.181-9.007-4.83-15.744-11.631-19.611c-0.001,0-0.005,0-0.005,0
			s2.899,4.539-5.283,12.006C20.249,25.034,5.552,37.24,12.027,44.712c0.095,0.11,0.195,0.218,0.299,0.324
			c3.144,1.671,6.729,2.622,10.537,2.622C35.282,47.658,45.598,37.589,45.35,25.172z"/>
		<g>
			<path fill="#FFFFFF" d="M9.719,23.771c0.722-0.182,6.938-0.795,8.031,0.933c0.882,1.395,1.204,2.709,1.565,7.885
				c1.144-3.853,3.333-6.169,4.441-6.655c1.567-0.689,5.837,1.117,8.239,1.879c-0.301-0.12-5.336-4.97-5.336-7.081
				c0-2.134,4.953-5.474,5.991-8.048c3.25-5.176-2.566-9.909-9.729-9.909c-7.382,0-14.515,3.747-18.284,9.254
				c-7.279,10.35-3.393,20.184-2.241,22.583c0.474-2.285,3.857,0.305,6.024,1.207c-1.865-1.203-4.424-4.012-4.424-6.179
				s2.856-3.977,4.542-5.421c-4.1,1.584-6.181,0.173-6.139-1.923C2.358,11.149,13.374,3.204,22.867,3.396
				c5.597,0.113,9.509,2.9,9.691,6.079c0.21,3.667-5.237,7.284-8.187,7.284s-7.42-7.229-7.42-7.229s1.111,8.261,0,9.768
				C14.965,21.988,9.719,23.771,9.719,23.771z"/>
			<path fill="#FFFFFF" d="M42.718,27.974c0.783-4.093,1.076-7.494-0.609-10.924c0,0,2.221,8.908-2.582,12.73
				c-1.204,0.783-6.164-1.095-6.164-1.095s3.275,3.322,3.094,5.971c-0.422,2.348-5.659,4.395-5.659,4.395s10.146-3.813,9.617,0.365
				c1.593-1.959,3.187-4.628,3.914-7.21C42.742,32.768,41.935,32.066,42.718,27.974z"/>
			<path fill="#FFFFFF" d="M29,39.903c-3.396,0.833-7.494,1.246-8.497,0.554c-1.355-1.042-1.298-5.37-1.304-6.38
				c0,0-2.249,5.912-3.885,6.079c-1.602,0.164-4.996-3.04-4.996-3.04s4.246,4.693,3.551,6.29c-0.213,0.49-2.167,1.385-2.167,1.385
				s5.643,3.514,12.822,2.895c-2.875-1.136-3.132-2.477-3.132-3.314C21.393,43.53,24.004,42.011,29,39.903z"/>
		</g>
	</g>
</g>
</svg>
